<?xml version="1.0" encoding="UTF-8" standalone="no"?>
<!-- Created with Inkscape (http://www.inkscape.org/) -->

<svg
   xmlns:dc="http://purl.org/dc/elements/1.1/"
   xmlns:cc="http://creativecommons.org/ns#"
   xmlns:rdf="http://www.w3.org/1999/02/22-rdf-syntax-ns#"
   xmlns:svg="http://www.w3.org/2000/svg"
   xmlns="http://www.w3.org/2000/svg"
   xmlns:sodipodi="http://sodipodi.sourceforge.net/DTD/sodipodi-0.dtd"
   xmlns:inkscape="http://www.inkscape.org/namespaces/inkscape"
   width="618.66833mm"
   height="517.30872mm"
   viewBox="0 0 618.66834 517.30872"
   version="1.1"
   id="svg8"
   inkscape:version="0.92.4 (5da689c313, 2019-01-14)">
  <defs
     id="defs2">
    <inkscape:tag
       id="Set 1" />
  </defs>
  <sodipodi:namedview
     id="base"
     pagecolor="#ffffff"
     bordercolor="#666666"
     borderopacity="1.0"
     inkscape:pageopacity="0.0"
     inkscape:pageshadow="2"
     inkscape:zoom="0.24748737"
     inkscape:cx="931.18831"
     inkscape:cy="1161.299"
     inkscape:document-units="mm"
     inkscape:current-layer="layer1"
     showgrid="false"
     inkscape:window-width="1440"
     inkscape:window-height="837"
     inkscape:window-x="-8"
     inkscape:window-y="57"
     inkscape:window-maximized="1" />
  <metadata
     id="metadata5">
    <rdf:RDF>
      <cc:Work
         rdf:about="">
        <dc:format>image/svg+xml</dc:format>
        <dc:type
           rdf:resource="http://purl.org/dc/dcmitype/StillImage" />
        <dc:title></dc:title>
      </cc:Work>
    </rdf:RDF>
  </metadata>
  <g
     inkscape:label="Layer 1"
     inkscape:groupmode="layer"
     id="layer1"
     transform="translate(195.20915,108.31077)">
    <path
       id="path3713"
       d="M 291.99219,247.3311 H -63.355458 c -4.253355,0 -7.733365,3.63748 -7.733365,8.08331 l -0.09683,48.50006 c 0,4.44585 3.480011,8.08335 7.733366,8.08335 H 291.99204 c 4.25336,0 7.73338,-3.6375 7.73338,-8.08335 v -48.50006 c 0,-4.44583 -3.48002,-8.08331 -7.73338,-8.08331 z m 0,97.00007 H -63.645441 c -4.253354,0 -7.733365,3.63749 -7.733365,8.08336 l -0.09683,48.50004 c 0,4.44585 3.48001,8.08336 7.733365,8.08336 H 291.99204 c 4.25336,0 7.73338,-3.63751 7.73338,-8.08336 v -48.50004 c 0,-4.44587 -3.48002,-8.08336 -7.73338,-8.08336 z m 0,-194.00018 h -355.1543 c -4.253358,0 -7.733368,3.63752 -7.733368,8.08331 l -0.09683,48.50006 c 0,4.44586 3.48001,8.08334 7.733367,8.08334 H 291.99204 c 4.25336,0 7.73338,-3.63748 7.73338,-8.08334 V 158.4143 c 0,-4.44579 -3.48002,-8.08331 -7.73338,-8.08331 z M 394.94245,9.882888 131.91175,-104.59743 a 46.545129,48.651615 0 0 0 -35.670079,0 L -166.69242,9.882888 c -17.20671,7.578152 -28.51673,25.159422 -28.51673,44.76154 V 400.91457 c 0,4.44585 3.48,8.08336 7.73335,8.08336 h 77.33356 c 4.25332,0 7.73333,-3.63751 7.73333,-8.08336 V 150.33099 c 0,-17.78337 14.113385,-32.33339 31.513432,-32.33339 H 299.14557 c 17.40003,0 31.51339,14.55002 31.51339,32.33339 v 250.58358 c 0,4.44585 3.48001,8.08336 7.73334,8.08336 h 77.33358 c 4.25331,0 7.73333,-3.63751 7.73333,-8.08336 V 54.644428 c 0,-19.602118 -11.31,-37.183388 -28.51676,-44.76154 z"
       inkscape:connector-curvature="0"
       style="fill:#ff3300;stroke-width:0.98830158" />
    <path
       style="fill:#ffe680;stroke-width:1.17044497"
       d="m 174.13631,310.93261 c 17.56913,-0.21217 46.03182,-0.21204 63.25043,2.9e-4 17.21858,0.21233 2.84385,0.38594 -31.94389,0.38578 -34.78772,-1.7e-4 -48.87567,-0.17395 -31.30654,-0.38607 z"
       id="path4550"
       inkscape:connector-curvature="0" />
    <path
       style="fill:#ffcc00;stroke-width:2.23723269"
       d="m -67.993808,182.75637 0.713786,-30.41482 180.136802,-0.50183 c 167.04937,-0.46539 180.37221,-0.2632 183.37669,2.78296 3.38198,3.42889 4.7649,49.47826 1.66658,55.49392 -1.41397,2.74537 -20.04965,3.05459 -184.09044,3.05459 H -68.707601 Z"
       id="path4578"
       inkscape:connector-curvature="0" />
    <path
       style="fill:#ffcc00;stroke-width:2.23723269"
       d="m -68.592965,306.79621 c -3.316819,-6.49976 -3.352625,-47.43425 -0.04715,-53.91177 l 2.527744,-4.95346 H 113.99739 c 175.41657,0 180.17968,0.0973 182.79287,3.73525 3.30397,4.59968 3.5782,51.2744 0.32772,55.79947 -2.17507,3.0281 -16.15489,3.32091 -182.74565,3.82766 l -180.390385,0.54872 z"
       id="path4580"
       inkscape:connector-curvature="0" />
    <path
       style="fill:#ffcc00;stroke-width:2.23723269"
       d="m -68.484776,404.477 c -3.490424,-4.85919 -3.490424,-51.39663 0,-56.2558 2.613141,-3.63787 7.374538,-3.73525 182.637496,-3.73525 175.26297,0 180.02435,0.0974 182.63754,3.73525 3.49038,4.85917 3.49038,51.39661 0,56.2558 -2.61319,3.63785 -7.37457,3.73525 -182.63754,3.73525 -175.262958,0 -180.024355,-0.0974 -182.637496,-3.73525 z"
       id="path4582"
       inkscape:connector-curvature="0" />
  </g>
</svg>
