<?xml version="1.0" encoding="UTF-8" standalone="no"?>
<!-- Created with Inkscape (http://www.inkscape.org/) -->

<svg
   xmlns:dc="http://purl.org/dc/elements/1.1/"
   xmlns:cc="http://creativecommons.org/ns#"
   xmlns:rdf="http://www.w3.org/1999/02/22-rdf-syntax-ns#"
   xmlns:svg="http://www.w3.org/2000/svg"
   xmlns="http://www.w3.org/2000/svg"
   xmlns:sodipodi="http://sodipodi.sourceforge.net/DTD/sodipodi-0.dtd"
   xmlns:inkscape="http://www.inkscape.org/namespaces/inkscape"
   width="618.66833mm"
   height="517.30872mm"
   viewBox="0 0 618.66834 517.30872"
   version="1.1"
   id="svg8"
   inkscape:version="0.92.4 (5da689c313, 2019-01-14)">
  <defs
     id="defs2">
    <inkscape:tag
       id="Set 1" />
  </defs>
  <sodipodi:namedview
     id="base"
     pagecolor="#ffffff"
     bordercolor="#666666"
     borderopacity="1.0"
     inkscape:pageopacity="0.0"
     inkscape:pageshadow="2"
     inkscape:zoom="0.24748737"
     inkscape:cx="931.18831"
     inkscape:cy="1161.299"
     inkscape:document-units="mm"
     inkscape:current-layer="layer1"
     showgrid="false"
     inkscape:window-width="1440"
     inkscape:window-height="837"
     inkscape:window-x="-8"
     inkscape:window-y="57"
     inkscape:window-maximized="1" />
  <metadata
     id="metadata5">
    <rdf:RDF>
      <cc:Work
         rdf:about="">
        <dc:format>image/svg+xml</dc:format>
        <dc:type
           rdf:resource="http://purl.org/dc/dcmitype/StillImage" />
        <dc:title></dc:title>
      </cc:Work>
    </rdf:RDF>
  </metadata>
  <g
     inkscape:label="Layer 1"
     inkscape:groupmode="layer"
     id="layer1"
     transform="translate(195.20915,108.31077)">
    <path
       id="path3713"
       d="M 291.99219,247.3311 H -63.355458 c -4.253355,0 -7.733365,3.63748 -7.733365,8.08331 l -0.09683,48.50006 c 0,4.44585 3.480011,8.08335 7.733366,8.08335 H 291.99204 c 4.25336,0 7.73338,-3.6375 7.73338,-8.08335 v -48.50006 c 0,-4.44583 -3.48002,-8.08331 -7.73338,-8.08331 z m 0,97.00007 H -63.645441 c -4.253354,0 -7.733365,3.63749 -7.733365,8.08336 l -0.09683,48.50004 c 0,4.44585 3.48001,8.08336 7.733365,8.08336 H 291.99204 c 4.25336,0 7.73338,-3.63751 7.73338,-8.08336 v -48.50004 c 0,-4.44587 -3.48002,-8.08336 -7.73338,-8.08336 z m 0,-194.00018 h -355.1543 c -4.253358,0 -7.733368,3.63752 -7.733368,8.08331 l -0.09683,48.50006 c 0,4.44586 3.48001,8.08334 7.733367,8.08334 H 291.99204 c 4.25336,0 7.73338,-3.63748 7.73338,-8.08334 V 158.4143 c 0,-4.44579 -3.48002,-8.08331 -7.73338,-8.08331 z M 394.94245,9.882888 131.91175,-104.59743 a 46.545129,48.651615 0 0 0 -35.670079,0 L -166.69242,9.882888 c -17.20671,7.578152 -28.51673,25.159422 -28.51673,44.76154 V 400.91457 c 0,4.44585 3.48,8.08336 7.73335,8.08336 h 77.33356 c 4.25332,0 7.73333,-3.63751 7.73333,-8.08336 V 150.33099 c 0,-17.78337 14.113385,-32.33339 31.513432,-32.33339 H 299.14557 c 17.40003,0 31.51339,14.55002 31.51339,32.33339 v 250.58358 c 0,4.44585 3.48001,8.08336 7.73334,8.08336 h 77.33358 c 4.25331,0 7.73333,-3.63751 7.73333,-8.08336 V 54.644428 c 0,-19.602118 -11.31,-37.183388 -28.51676,-44.76154 z"
       inkscape:connector-curvature="0"
       style="fill:#ff3300;stroke-width:0.98830158" />
    <path
       style="fill:#ffe680;stroke-width:1.17044497"
       d="m 174.13631,310.93261 c 17.56913,-0.21217 46.03182,-0.21204 63.25043,2.9e-4 17.21858,0.21233 2.84385,0.38594 -31.94389,0.38578 -34.78772,-1.7e-4 -48.87567,-0.17395 -31.30654,-0.38607 z"
       id="path4550"
       inkscape:connector-curvature="0" />
    <path
       style="fill:#0099ff;stroke-width:4.04061031"
       d="m 11.545429,1945.4574 c -8.016822,-8.0168 -8.08122,-13.4687 -8.08122,-684.15 0,-740.13509 -1.4060693,-695.3787 23.181585,-737.8898 C 40.729201,499.06791 66.240781,472.06064 86.064302,460.51548 111.56983,445.66115 1113.9496,10.212273 1132.503,5.9267421 c 23.3608,-5.39595523 53.5617,-4.7989487 77.0833,1.5237686 17.8891,4.8086503 994.5974,427.8586293 1033.7878,447.7733093 36.211,18.40065 70.2314,60.86039 83.867,104.67184 7.3847,23.72719 7.6552,48.49379 7.6552,701.03834 0,671.0547 -0.064,676.5066 -8.0812,684.5234 -7.8006,7.8006 -13.4687,8.0812 -163.1971,8.0812 -146.699,0 -155.6335,-0.4191 -164.6549,-7.7233 l -9.539,-7.7233 -2.0203,-498.3631 -2.0203,-498.36311 -9.4086,-19.10372 c -5.1748,-10.50704 -18.3678,-27.15876 -29.3179,-37.00379 -37.1895,-33.43653 30.3072,-30.76561 -777.4768,-30.76561 -811.84111,0 -740.41559,-3.00169 -779.54526,32.76062 -39.97806,36.5377 -36.37826,-14.88136 -38.67826,552.47561 l -2.0203,498.3631 -9.53901,7.7233 c -9.0214,7.3042 -17.95589,7.7233 -164.65486,7.7233 -149.72838,0 -155.396537,-0.2806 -163.197081,-8.0812 z"
       id="path4584"
       inkscape:connector-curvature="0"
       transform="matrix(0.26458333,0,0,0.26458333,-195.20915,-108.31077)" />
    <path
       style="fill:#66cc33;stroke-width:4.04061031"
       d="m 478.46502,1209.1673 c -5.29023,-7.5529 -6.29003,-25.2149 -6.29003,-111.1168 0,-96.749 0.42627,-102.56274 8.08122,-110.21769 8.0174,-8.01741 13.4687,-8.08122 690.31809,-8.08122 h 682.2369 l 7.6973,8.49676 c 7.0319,7.76229 7.8031,16.74595 8.9212,103.92935 1.289,100.514 0.5715,109.4552 -9.5998,119.6264 -5.7143,5.7143 -74.2237,6.3435 -690.7091,6.3435 H 484.75506 Z"
       id="path4586"
       inkscape:connector-curvature="0"
       transform="matrix(0.26458333,0,0,0.26458333,-195.20915,-108.31077)" />
    <path
       style="fill:#66cc33;stroke-width:4.04061031"
       d="m 479.05099,1578.6626 c -6.10337,-6.7442 -6.876,-19.4101 -6.876,-112.7196 0,-96.7085 0.59137,-105.6568 7.38923,-111.8087 6.81443,-6.167 60.53899,-6.6872 690.65108,-6.6872 h 683.2618 l 8.3745,10.6464 c 7.9489,10.1054 8.3745,15.6219 8.3745,108.5516 0,89.629 -0.6407,98.7197 -7.58,107.5414 l -7.58,9.6363 -684.5695,1.2188 c -665.7523,1.1853 -684.75862,1.01 -691.44561,-6.379 z"
       id="path4588"
       inkscape:connector-curvature="0"
       transform="matrix(0.26458333,0,0,0.26458333,-195.20915,-108.31077)" />
    <path
       style="fill:#66cc33;stroke-width:4.04061031"
       d="m 479.69369,1945.8207 c -9.48465,-7.674 -9.54595,-8.2766 -10.75775,-105.7358 -1.30628,-105.0579 0.32559,-116.436 17.84441,-124.4181 12.60274,-5.7422 1349.31195,-6.5888 1364.36895,-0.8641 17.6915,6.7263 19.5877,19.7255 18.2752,125.2822 -1.2117,97.4592 -1.273,98.0618 -10.7577,105.7358 -9.3049,7.5285 -26.2294,7.7179 -689.4866,7.7179 -663.25708,0 -680.18165,-0.1894 -689.48651,-7.7179 z"
       id="path4590"
       inkscape:connector-curvature="0"
       transform="matrix(0.26458333,0,0,0.26458333,-195.20915,-108.31077)" />
  </g>
</svg>
