<?xml version="1.0" encoding="UTF-8" standalone="no"?>
<!-- Created with Inkscape (http://www.inkscape.org/) -->

<svg
   xmlns:dc="http://purl.org/dc/elements/1.1/"
   xmlns:cc="http://creativecommons.org/ns#"
   xmlns:rdf="http://www.w3.org/1999/02/22-rdf-syntax-ns#"
   xmlns:svg="http://www.w3.org/2000/svg"
   xmlns="http://www.w3.org/2000/svg"
   xmlns:sodipodi="http://sodipodi.sourceforge.net/DTD/sodipodi-0.dtd"
   xmlns:inkscape="http://www.inkscape.org/namespaces/inkscape"
   width="473.22617mm"
   height="282.11484mm"
   viewBox="0 0 473.22617 282.11484"
   version="1.1"
   id="svg8"
   inkscape:version="0.92.4 (5da689c313, 2019-01-14)">
  <defs
     id="defs2" />
  <sodipodi:namedview
     id="base"
     pagecolor="#ffffff"
     bordercolor="#666666"
     borderopacity="1.0"
     inkscape:pageopacity="0.0"
     inkscape:pageshadow="2"
     inkscape:zoom="0.35"
     inkscape:cx="862.85712"
     inkscape:cy="538.84466"
     inkscape:document-units="mm"
     inkscape:current-layer="layer1"
     showgrid="false"
     inkscape:window-width="1440"
     inkscape:window-height="837"
     inkscape:window-x="-8"
     inkscape:window-y="57"
     inkscape:window-maximized="1" />
  <metadata
     id="metadata5">
    <rdf:RDF>
      <cc:Work
         rdf:about="">
        <dc:format>image/svg+xml</dc:format>
        <dc:type
           rdf:resource="http://purl.org/dc/dcmitype/StillImage" />
        <dc:title></dc:title>
      </cc:Work>
    </rdf:RDF>
  </metadata>
  <g
     inkscape:label="Layer 1"
     inkscape:groupmode="layer"
     id="layer1"
     transform="translate(122.46428,-9.2878199)">
    <path
       id="path3713"
       d="M 250.20134,203.23748 H -21.607952 c -3.253439,0 -5.915337,1.98371 -5.915337,4.40824 l -0.07406,26.44956 c 0,2.42454 2.661898,4.40826 5.915337,4.40826 H 250.20123 c 3.25344,0 5.91533,-1.98372 5.91533,-4.40826 v -26.44956 c 0,-2.42453 -2.66189,-4.40824 -5.91533,-4.40824 z m 0,52.89908 H -21.829763 c -3.253439,0 -5.915336,1.98372 -5.915336,4.40827 l -0.07406,26.44955 c 0,2.42455 2.661897,4.40827 5.915336,4.40827 H 250.20123 c 3.25344,0 5.91533,-1.98372 5.91533,-4.40827 v -26.44955 c 0,-2.42455 -2.66189,-4.40827 -5.91533,-4.40827 z m 0,-105.79819 H -21.460059 c -3.25344,0 -5.915337,1.98372 -5.915337,4.40824 l -0.07406,26.44956 c 0,2.42455 2.661897,4.40826 5.915337,4.40826 H 250.20123 c 3.25344,0 5.91533,-1.98371 5.91533,-4.40826 v -26.44956 c 0,-2.42452 -2.66189,-4.40824 -5.91533,-4.40824 z M 328.94912,73.744856 127.75406,11.312896 a 35.602876,26.532208 0 0 0 -27.28443,0 l -201.12115,62.43196 c -13.1616,4.132753 -21.81276,13.720716 -21.81276,24.410751 V 286.99438 c 0,2.42455 2.66189,4.40827 5.91532,4.40827 h 59.153286 c 3.253411,0 5.915309,-1.98372 5.915309,-4.40827 V 150.33837 c 0,-9.69818 10.795482,-17.63304 24.104969,-17.63304 H 255.67303 c 13.30948,0 24.10494,7.93486 24.10494,17.63304 v 136.65601 c 0,2.42455 2.6619,4.40827 5.91533,4.40827 h 59.15329 c 3.25341,0 5.91531,-1.98372 5.91531,-4.40827 V 98.155607 c 0,-10.690035 -8.65115,-20.277998 -21.81278,-24.410751 z"
       inkscape:connector-curvature="0"
       style="fill:#e6e6e6;stroke-width:0.63831192" />
  </g>
</svg>
